<svg xmlns="http://www.w3.org/2000/svg" width="1600" height="900" viewBox="0 0 1600 900" fill="none">
  <rect width="1600" height="900" fill="#0e1116"/>
  <g opacity="0.12" stroke="white">
    <line x1="0" y1="0" x2="0" y2="900"/><line x1="48" y1="0" x2="48" y2="900"/><line x1="96" y1="0" x2="96" y2="900"/><line x1="144" y1="0" x2="144" y2="900"/><line x1="192" y1="0" x2="192" y2="900"/><line x1="240" y1="0" x2="240" y2="900"/><line x1="288" y1="0" x2="288" y2="900"/><line x1="336" y1="0" x2="336" y2="900"/><line x1="384" y1="0" x2="384" y2="900"/><line x1="432" y1="0" x2="432" y2="900"/><line x1="480" y1="0" x2="480" y2="900"/><line x1="528" y1="0" x2="528" y2="900"/><line x1="576" y1="0" x2="576" y2="900"/><line x1="624" y1="0" x2="624" y2="900"/><line x1="672" y1="0" x2="672" y2="900"/><line x1="720" y1="0" x2="720" y2="900"/><line x1="768" y1="0" x2="768" y2="900"/><line x1="816" y1="0" x2="816" y2="900"/><line x1="864" y1="0" x2="864" y2="900"/><line x1="912" y1="0" x2="912" y2="900"/><line x1="960" y1="0" x2="960" y2="900"/><line x1="1008" y1="0" x2="1008" y2="900"/><line x1="1056" y1="0" x2="1056" y2="900"/><line x1="1104" y1="0" x2="1104" y2="900"/><line x1="1152" y1="0" x2="1152" y2="900"/><line x1="1200" y1="0" x2="1200" y2="900"/><line x1="1248" y1="0" x2="1248" y2="900"/><line x1="1296" y1="0" x2="1296" y2="900"/><line x1="1344" y1="0" x2="1344" y2="900"/><line x1="1392" y1="0" x2="1392" y2="900"/><line x1="1440" y1="0" x2="1440" y2="900"/><line x1="1488" y1="0" x2="1488" y2="900"/><line x1="1536" y1="0" x2="1536" y2="900"/><line x1="1584" y1="0" x2="1584" y2="900"/>
    <line x1="0" y1="0" x2="1600" y2="0"/><line x1="0" y1="48" x2="1600" y2="48"/><line x1="0" y1="96" x2="1600" y2="96"/><line x1="0" y1="144" x2="1600" y2="144"/><line x1="0" y1="192" x2="1600" y2="192"/><line x1="0" y1="240" x2="1600" y2="240"/><line x1="0" y1="288" x2="1600" y2="288"/><line x1="0" y1="336" x2="1600" y2="336"/><line x1="0" y1="384" x2="1600" y2="384"/><line x1="0" y1="432" x2="1600" y2="432"/><line x1="0" y1="480" x2="1600" y2="480"/><line x1="0" y1="528" x2="1600" y2="528"/><line x1="0" y1="576" x2="1600" y2="576"/><line x1="0" y1="624" x2="1600" y2="624"/><line x1="0" y1="672" x2="1600" y2="672"/><line x1="0" y1="720" x2="1600" y2="720"/><line x1="0" y1="768" x2="1600" y2="768"/><line x1="0" y1="816" x2="1600" y2="816"/><line x1="0" y1="864" x2="1600" y2="864"/>
  </g>
  <text x="90" y="110" fill="#edf2f7" font-family="Arial, Helvetica, sans-serif" font-size="58" font-weight="700">Architecture Portfolio</text>
  <text x="90" y="158" fill="#98a3b3" font-family="Arial, Helvetica, sans-serif" font-size="28">GitHub comme source de vérité, Railway comme cible de déploiement, WordPress comme produit.</text>

  <rect x="90" y="260" width="260" height="150" rx="18" fill="#141922" stroke="rgba(255,255,255,0.18)"/>
  <text x="126" y="324" fill="#edf2f7" font-family="Arial, Helvetica, sans-serif" font-size="42" font-weight="700">GitHub</text>
  <text x="126" y="372" fill="#98a3b3" font-family="Arial, Helvetica, sans-serif" font-size="24">repo public</text>

  <rect x="430" y="260" width="320" height="150" rx="18" fill="#141922" stroke="rgba(255,255,255,0.18)"/>
  <text x="466" y="324" fill="#edf2f7" font-family="Arial, Helvetica, sans-serif" font-size="42" font-weight="700">Railway</text>
  <text x="466" y="372" fill="#98a3b3" font-family="Arial, Helvetica, sans-serif" font-size="24">build + deploy + vars</text>

  <rect x="850" y="220" width="360" height="230" rx="18" fill="#141922" stroke="rgba(255,255,255,0.18)"/>
  <text x="886" y="290" fill="#edf2f7" font-family="Arial, Helvetica, sans-serif" font-size="42" font-weight="700">WordPress / PHP / Apache2</text>
  <text x="886" y="340" fill="#98a3b3" font-family="Arial, Helvetica, sans-serif" font-size="24">thème custom</text>
  <text x="886" y="376" fill="#98a3b3" font-family="Arial, Helvetica, sans-serif" font-size="24">plugin custom</text>
  <text x="886" y="412" fill="#98a3b3" font-family="Arial, Helvetica, sans-serif" font-size="24">inventory JSON + uploads PDF</text>

  <rect x="850" y="560" width="360" height="170" rx="18" fill="#141922" stroke="rgba(255,255,255,0.18)"/>
  <text x="886" y="632" fill="#edf2f7" font-family="Arial, Helvetica, sans-serif" font-size="42" font-weight="700">MariaDB</text>
  <text x="886" y="680" fill="#98a3b3" font-family="Arial, Helvetica, sans-serif" font-size="24">service séparé Railway</text>

  <rect x="1280" y="260" width="230" height="150" rx="18" fill="#141922" stroke="rgba(255,255,255,0.18)"/>
  <text x="1316" y="324" fill="#edf2f7" font-family="Arial, Helvetica, sans-serif" font-size="42" font-weight="700">Reviewers</text>
  <text x="1316" y="372" fill="#98a3b3" font-family="Arial, Helvetica, sans-serif" font-size="24">recruteurs / jury</text>

  <path d="M350 335H430" stroke="#31c48d" stroke-width="8" stroke-linecap="round"/>
  <path d="M750 335H850" stroke="#31c48d" stroke-width="8" stroke-linecap="round"/>
  <path d="M1030 450V560" stroke="#f59e0b" stroke-width="8" stroke-linecap="round"/>
  <path d="M1210 335H1280" stroke="#fb7185" stroke-width="8" stroke-linecap="round"/>

  <circle cx="390" cy="335" r="10" fill="#31c48d"/>
  <circle cx="800" cy="335" r="10" fill="#31c48d"/>
  <circle cx="1030" cy="505" r="10" fill="#f59e0b"/>
  <circle cx="1245" cy="335" r="10" fill="#fb7185"/>

  <text x="370" y="304" fill="#31c48d" font-family="Arial, Helvetica, sans-serif" font-size="22">push</text>
  <text x="782" y="304" fill="#31c48d" font-family="Arial, Helvetica, sans-serif" font-size="22">deploy</text>
  <text x="1050" y="516" fill="#f59e0b" font-family="Arial, Helvetica, sans-serif" font-size="22">db link</text>
  <text x="1216" y="304" fill="#fb7185" font-family="Arial, Helvetica, sans-serif" font-size="22">portfolio proof</text>
</svg>
